<?xml version="1.0" ?><svg data-name="Layer 1" height="200" id="Layer_1" viewBox="0 0 200 200" width="200" xmlns="http://www.w3.org/2000/svg"><title/><path d="M168.5,63.44l-50-39.5a30,30,0,0,0-37,0l-50,39.5A29.83,29.83,0,0,0,20,86.94v75.5a20.06,20.06,0,0,0,20,20H68.5a20.06,20.06,0,0,0,20-20v-37.5H116v37.5a20.06,20.06,0,0,0,20,20h24a20.06,20.06,0,0,0,20-20V86.94a29.83,29.83,0,0,0-11.5-23.5Zm-8.5,99H136v-37.5a20.06,20.06,0,0,0-20-20H88.5a20.06,20.06,0,0,0-20,20v37.5H40V86.94a10.44,10.44,0,0,1,4-8l50-39.5c3.5-3,8.5-3,12.5,0l50,39.5a10.44,10.44,0,0,1,4,8v75.5Z"/></svg>